<svg xmlns="http://www.w3.org/2000/svg" viewBox="0 0 500 500"><g id="freepik--background-complete--inject-16"><rect x="48.73" y="198.85" width="26.48" height="11.19" style="fill:#ebebeb"></rect><rect x="33.96" y="212.96" width="26.48" height="11.19" style="fill:#ebebeb"></rect><rect x="63.5" y="212.96" width="26.48" height="11.19" style="fill:#ebebeb"></rect><rect x="424.79" y="212.96" width="26.48" height="11.19" style="fill:#ebebeb"></rect><rect x="424.79" y="34.52" width="26.48" height="11.19" style="fill:#ebebeb"></rect><rect x="439.56" y="48.63" width="26.48" height="11.19" style="fill:#ebebeb"></rect><rect x="33.96" y="34.54" width="26.48" height="11.19" style="fill:#ebebeb"></rect><rect x="167.4" y="107.26" width="26.48" height="11.19" transform="translate(361.29 225.71) rotate(180)" style="fill:#ebebeb"></rect><rect x="182.18" y="93.15" width="26.48" height="11.19" transform="translate(390.83 197.49) rotate(180)" style="fill:#ebebeb"></rect><rect x="250" y="92.57" width="177.53" height="7.78" style="fill:#ebebeb"></rect><rect x="259.95" y="100.35" width="7.79" height="25.75" style="fill:#ebebeb"></rect><rect x="259.95" y="100.35" width="7.79" height="7.96" style="fill:#dbdbdb"></rect><rect x="409.79" y="100.35" width="7.79" height="25.75" style="fill:#ebebeb"></rect><rect x="409.79" y="100.35" width="7.79" height="7.96" style="fill:#dbdbdb"></rect><rect x="264.58" y="61.51" width="49.61" height="12.49" transform="translate(357.14 -221.62) rotate(90)" style="fill:#c7c7c7"></rect><rect x="286.66" y="36.78" width="5.45" height="12.49" transform="translate(332.41 -246.36) rotate(90)" style="fill:#dbdbdb"></rect><rect x="288.37" y="47.5" width="2.02" height="12.49" transform="translate(343.13 -235.64) rotate(90)" style="fill:#dbdbdb"></rect><rect x="287.44" y="76.31" width="5.45" height="14.05" transform="translate(373.5 -206.83) rotate(90)" style="fill:#dbdbdb"></rect><rect x="271.06" y="59.26" width="57.88" height="8.73" transform="translate(363.63 -236.37) rotate(90)" style="fill:#dbdbdb"></rect><rect x="288.83" y="48.64" width="22.26" height="5.24" transform="translate(351.22 -248.7) rotate(90)" style="fill:#ebebeb"></rect><rect x="313.9" y="64.76" width="57.88" height="8.73" transform="translate(147.6 -221.04) rotate(44.67)" style="fill:#c7c7c7"></rect><rect x="334.73" y="69.46" width="22.26" height="5.24" transform="translate(150.55 -222.32) rotate(44.67)" style="fill:#dbdbdb"></rect><rect x="289.79" y="63.18" width="43.96" height="14.83" transform="translate(382.37 -241.18) rotate(90)" style="fill:#a6a6a6"></rect><rect x="309.72" y="78.45" width="4.1" height="14.83" transform="translate(397.64 -225.9) rotate(90)" style="fill:#c7c7c7"></rect><rect x="310.98" y="72.92" width="1.59" height="14.83" transform="translate(392.11 -231.44) rotate(90)" style="fill:#c7c7c7"></rect><rect x="257.36" y="66.8" width="41.31" height="10.24" transform="translate(349.93 -206.1) rotate(90)" style="fill:#a6a6a6"></rect><rect x="276.09" y="81.15" width="3.85" height="10.24" transform="translate(364.29 -191.74) rotate(90)" style="fill:#c7c7c7"></rect><rect x="276.09" y="56.58" width="3.85" height="10.24" transform="translate(339.72 -216.31) rotate(90)" style="fill:#c7c7c7"></rect><rect x="277.27" y="61.89" width="1.49" height="10.24" transform="translate(345.03 -211) rotate(90)" style="fill:#c7c7c7"></rect><polygon points="408.86 73.31 407.75 76.26 407.06 78.06 405.95 81.02 401.58 92.57 378 92.57 373.62 81.02 372.51 78.06 371.83 76.26 370.71 73.31 379.41 60.63 374.9 52.27 404.69 52.27 400.16 60.63 408.86 73.31" style="fill:#dbdbdb"></polygon><polygon points="408.86 73.31 407.75 76.26 371.83 76.26 370.71 73.31 408.86 73.31" style="fill:#a6a6a6"></polygon><polygon points="407.06 78.06 405.95 81.02 373.62 81.02 372.51 78.06 407.06 78.06" style="fill:#a6a6a6"></polygon></g><g id="freepik--Floor--inject-16"><polygon points="29.7 356.51 84.78 356.26 139.85 356.18 250 356.01 360.15 356.18 415.22 356.26 470.3 356.51 415.22 356.75 360.15 356.84 250 357.01 139.85 356.84 84.78 356.75 29.7 356.51" style="fill:#263238"></polygon></g><g id="freepik--Shadow--inject-16"><path d="M109.09,366c0,3.64-18,6.59-40.22,6.59s-40.21-3-40.21-6.59,18-6.59,40.21-6.59S109.09,362.31,109.09,366Z" style="fill:#ebebeb"></path><ellipse cx="255.87" cy="431.76" rx="204.27" ry="25.43" style="fill:#ebebeb"></ellipse></g><g id="freepik--Plant--inject-16"><path d="M71.2,280.93A68.84,68.84,0,0,0,69,293.38c.12.21.09,1,0,.77,0,.68-1.07.56-1.07-.11,0-.44,0-.88,0-1.31-2.44-3-6-4.94-8.83-7.56a16.49,16.49,0,0,1-4.83-7.7c-2.37-8.16-.15-16.81-3-25-2.46-7-6.86-13.12-10.59-19.48-3.93-6.73-6.84-13.8-7.13-21.68-.23-6,.49-14.07,5.08-18.59,4.87-4.8,10.91-1.2,14.65,3.07,10.81,12.41,15.81,28.1,17.83,44.13,1.12,8.88,2.28,17.81,2,26.77A71.59,71.59,0,0,1,71.2,280.93Z" style="fill:#FFC727"></path><path d="M69.05,296.64a152.9,152.9,0,0,0-.3-25.14.26.26,0,0,0,0-.09c.13-6.8.67-13.57.4-20.38a120.28,120.28,0,0,0-3-21.85c0-.08-.15-.06-.13,0a142.14,142.14,0,0,1,2.36,21.37c.14,3.84.12,7.69-.09,11.52-.06,1.25-.18,2.51-.26,3.77h0a134.37,134.37,0,0,0-20.23-53.52c-.14-.22-.53,0-.39.25a139.82,139.82,0,0,1,16.46,39.67c-5.2-9.63-13-17.55-18.88-26.81,0-.05-.12,0-.09.05,5.23,10.31,13.88,18.44,19.4,28.59q1.42,6.21,2.32,12.52A140.67,140.67,0,0,1,67.93,284c-3.17-5.92-6.45-11.58-9-17.84-.07-.17-.31-.06-.26.11,2.21,6.5,5.17,13.51,9.32,19.06q0,6.17-.34,12.34c-.65,11-2.52,21.81-3.39,32.76a.25.25,0,0,0,.5.05A251.37,251.37,0,0,0,69.05,296.64Z" style="fill:#263238"></path><path d="M57.39,212c0-.08-.15,0-.12.06,2,5.54,3.14,11.16,4.59,16.84a.21.21,0,0,0,.41-.06C61.68,223.05,59.62,217.3,57.39,212Z" style="fill:#263238"></path><path d="M108.31,235.22a82.77,82.77,0,0,1-4.61,9.47c-3.61,6.56-7.38,12.57-8.06,20.2-.31,3.41-.41,6.84-1.45,10.12a30.38,30.38,0,0,1-4,7.92c-3.91,5.7-8.8,10.61-12.43,16.53a69.55,69.55,0,0,0-8.25,19.92c-.09.38-.7.28-.61-.11a.24.24,0,0,0,0-.08.16.16,0,0,1,0-.09c-.58-16.37.73-32.86,5.72-48.55a168.8,168.8,0,0,1,7.94-20.19c2.67-5.69,6-11.16,10.7-15.4,3.05-2.75,9.65-8,14-5.2C109.28,231.09,109.13,233.18,108.31,235.22Z" style="fill:#FFC727"></path><path d="M91.86,272.33A134.2,134.2,0,0,1,82.34,286c-1.58,2.07-3.19,4.12-4.77,6.19-.75,1-1.59,1.95-2.27,3,.43-1.72.85-3.44,1.29-5.16,2.11-8.27,4.14-16.61,7.29-24.57a165.56,165.56,0,0,1,11.36-22.28c.12-.19-.19-.33-.3-.14-3.46,5.69-7,11.37-9.88,17.36a92,92,0,0,0-4.19,10.31,158.52,158.52,0,0,1,5.58-22c0-.06-.07-.11-.1,0a75.12,75.12,0,0,0-5.79,22.91,0,0,0,0,0,0,0c-.71,2.13-1.36,4.28-2,6.44-2.58,9.16-4.84,18.41-6.94,27.7a98.61,98.61,0,0,1,1.58-18.21.11.11,0,0,0-.22,0,57.71,57.71,0,0,0-1.58,19.19q-1.18,5.29-2.32,10.6c-1.61,7.55-3.59,15.23-4.53,22.89a.16.16,0,0,0,.31.05c1.12-4.13,1.8-8.41,2.72-12.59s1.87-8.38,2.84-12.57c1.42-6.09,2.91-12.16,4.43-18.23,1-2.22,3-4.2,4.44-6.06,1.61-2,3.23-4.1,4.79-6.18A92.54,92.54,0,0,0,92,272.4C92.05,272.31,91.91,272.24,91.86,272.33Z" style="fill:#263238"></path><path d="M92.55,265.33a85.09,85.09,0,0,0-9.3,14.79c0,.07.07.14.11.07,3.13-4.91,6.21-9.85,9.34-14.77C92.75,265.34,92.61,265.25,92.55,265.33Z" style="fill:#263238"></path><path d="M22.87,250.74c2.12,3.66,4.54,8,3.63,12.43-.58,2.78-2.61,5-3,7.86-.82,6.26,5.41,10.39,9.92,13.34,11.24,7.38,26.66,13.95,28.7,29,.08.54,1,.4.94-.12a.54.54,0,0,0,0-.1s.06,0,.06-.09a57.83,57.83,0,0,0-.21-23c-1.68-7.76-5.07-14.74-9.07-21.56-6.76-11.54-13.92-23.36-24.15-32.2-2.84-2.44-8.63-6.84-10.89-1.32C16.6,240.36,20.27,246.29,22.87,250.74Z" style="fill:#FFC727"></path><path d="M33.16,275.21c7.45,8.07,19.3,12.59,25.71,21.63a90.51,90.51,0,0,0-19.76-37.13.29.29,0,0,1,.41-.41,73.31,73.31,0,0,1,16.15,23.39,105,105,0,0,0-7-17.78.19.19,0,0,1,.33-.2,68,68,0,0,1,7.49,20c8.45,20.46,9.24,44.46,7.47,66,0,.31-.5.32-.49,0,.49-17,.21-34.29-3.86-50.89l-.27-1c-7-9.72-18.78-14.23-26.36-23.47C33,275.25,33.08,275.12,33.16,275.21Z" style="fill:#263238"></path><path d="M31.43,268.28c3.91,3.59,7.76,7.26,11.68,10.85,0,0,0,.1-.06.07A57.11,57.11,0,0,1,31.2,268.51.16.16,0,0,1,31.43,268.28Z" style="fill:#263238"></path><path d="M30.81,252.73a122.94,122.94,0,0,0,11.71,16.1c0,.07,0,.16-.1.1A56.84,56.84,0,0,1,30.6,252.85.12.12,0,0,1,30.81,252.73Z" style="fill:#263238"></path><polygon points="48.42 365.95 82.69 365.95 78.08 319.85 53.7 319.85 48.42 365.95" style="fill:#455a64"></polygon><polygon points="52.84 327.34 78.83 327.34 78.08 319.84 53.7 319.84 52.84 327.34" style="fill:#263238"></polygon><rect x="49.5" y="314.74" width="32.12" height="7.36" transform="translate(131.12 636.83) rotate(180)" style="fill:#455a64"></rect></g><g id="freepik--Sofa--inject-16"><rect x="100.43" y="234.8" width="300.82" height="152.66" style="fill:#dbdbdb"></rect><rect x="61.22" y="284.56" width="39.21" height="102.9" style="fill:#dbdbdb"></rect><rect x="401.25" y="284.56" width="39.21" height="102.9" style="fill:#dbdbdb"></rect><rect x="250.37" y="234.81" width="0.93" height="122.31" style="fill:#c7c7c7"></rect><rect x="99.97" y="284.56" width="0.93" height="102.9" style="fill:#c7c7c7"></rect><rect x="400.78" y="284.56" width="0.93" height="102.9" style="fill:#c7c7c7"></rect><path d="M251.32,357.6H100V325.68H251.32Zm-150.4-1H250.36v-30H100.92Z" style="fill:#c7c7c7"></path><path d="M401.71,357.6H250.36V325.68H401.71Zm-150.39-1H400.76v-30H251.32Z" style="fill:#c7c7c7"></path><path d="M110.66,268.39a.65.65,0,0,0,0,1.3A.65.65,0,0,0,110.66,268.39Z" style="fill:#a6a6a6"></path><path d="M111.77,347.84a.65.65,0,0,0,0,1.3A.65.65,0,0,0,111.77,347.84Z" style="fill:#a6a6a6"></path><path d="M149,335.43a.87.87,0,0,0-.1-.19.29.29,0,0,0-.5,0,1.74,1.74,0,0,0-.1.19C147.93,336.2,149.37,336.2,149,335.43Z" style="fill:#a6a6a6"></path><path d="M84.18,349.48a1.24,1.24,0,0,0-.1-.2.29.29,0,0,0-.5,0,.75.75,0,0,0-.1.2C83.11,350.25,84.55,350.25,84.18,349.48Z" style="fill:#a6a6a6"></path><path d="M116.24,272.35a.5.5,0,0,0,0,1A.5.5,0,0,0,116.24,272.35Z" style="fill:#a6a6a6"></path><path d="M319,288.51a.5.5,0,0,0,0,1A.5.5,0,0,0,319,288.51Z" style="fill:#a6a6a6"></path><path d="M74.53,322.71a.5.5,0,0,0,0,1A.5.5,0,0,0,74.53,322.71Z" style="fill:#a6a6a6"></path><path d="M139.65,244.68a.68.68,0,0,0-1,0,1,1,0,0,0-.23.93.75.75,0,0,0,1.44,0A.94.94,0,0,0,139.65,244.68Z" style="fill:#a6a6a6"></path><path d="M117.21,344.17a.68.68,0,0,0-1,0,.94.94,0,0,0-.24.93.75.75,0,0,0,1.44,0A1,1,0,0,0,117.21,344.17Z" style="fill:#a6a6a6"></path><path d="M374,349.56a.65.65,0,0,0,0-1.29A.65.65,0,0,0,374,349.56Z" style="fill:#a6a6a6"></path><path d="M239.35,350.86a.65.65,0,0,0,0-1.3A.65.65,0,0,0,239.35,350.86Z" style="fill:#a6a6a6"></path><path d="M370.28,246.4a.65.65,0,0,0,0-1.3A.65.65,0,0,0,370.28,246.4Z" style="fill:#a6a6a6"></path><path d="M207.07,264.18a.65.65,0,0,0,0-1.3A.65.65,0,0,0,207.07,264.18Z" style="fill:#a6a6a6"></path><path d="M326.11,282.52a1.24,1.24,0,0,0,.1.2.29.29,0,0,0,.5,0,1.24,1.24,0,0,0,.1-.2C327.18,281.75,325.74,281.75,326.11,282.52Z" style="fill:#a6a6a6"></path><path d="M267.53,344.73c0,.07.07.13.1.2a.3.3,0,0,0,.51,0l.1-.2C268.61,344,267.16,344,267.53,344.73Z" style="fill:#a6a6a6"></path><path d="M423,333a1.14,1.14,0,0,0,.1.19.3.3,0,0,0,.51,0c0-.06.07-.12.1-.19C424.09,332.21,422.65,332.21,423,333Z" style="fill:#a6a6a6"></path><path d="M368.44,345.6a.5.5,0,0,0,0-1A.5.5,0,0,0,368.44,345.6Z" style="fill:#a6a6a6"></path><path d="M410.15,295.25a.5.5,0,0,0,0-1A.5.5,0,0,0,410.15,295.25Z" style="fill:#a6a6a6"></path><path d="M413.68,361.76a.5.5,0,0,0,0-1A.5.5,0,0,0,413.68,361.76Z" style="fill:#a6a6a6"></path><path d="M335.46,373.28a.7.7,0,0,0,1,0,1,1,0,0,0,.23-.94.75.75,0,0,0-1.44,0A1,1,0,0,0,335.46,373.28Z" style="fill:#a6a6a6"></path><path d="M367.47,273.79a.68.68,0,0,0,1,0,1,1,0,0,0,.24-.94.75.75,0,0,0-1.44,0A1,1,0,0,0,367.47,273.79Z" style="fill:#a6a6a6"></path><path d="M187.26,305.61a.7.7,0,0,0,1,0,1,1,0,0,0,.23-.94.75.75,0,0,0-1.44,0A1,1,0,0,0,187.26,305.61Z" style="fill:#a6a6a6"></path><path d="M426.88,326.52a.68.68,0,0,0,1,0,1,1,0,0,0,.23-.94.75.75,0,0,0-1.44,0A1,1,0,0,0,426.88,326.52Z" style="fill:#a6a6a6"></path><path d="M100.9,356.73a330.69,330.69,0,0,0,74.69,8.93,361,361,0,0,0,75.72-8.54Z" style="fill:#c7c7c7"></path><path d="M250.84,356.73a330.69,330.69,0,0,0,74.69,8.93,361,361,0,0,0,75.72-8.54Z" style="fill:#c7c7c7"></path><rect x="61.22" y="378.41" width="379.25" height="9.05" style="fill:#37474f"></rect><polygon points="113.75 387.46 103.78 407.88 93.76 428.4 85.04 428.4 88.28 407.88 91.5 387.46 113.75 387.46" style="fill:#37474f"></polygon><polygon points="91.5 387.46 113.75 387.46 107.7 399.84 89.55 399.84 91.5 387.46" style="fill:#263238"></polygon><polygon points="412.91 428.4 404.19 428.4 394.17 407.88 384.2 387.46 406.45 387.46 409.67 407.88 412.91 428.4" style="fill:#37474f"></polygon><polygon points="408.4 399.84 390.24 399.84 384.2 387.46 406.44 387.46 408.4 399.84" style="fill:#263238"></polygon></g><g id="freepik--Browser--inject-16"><rect x="67.64" y="125.98" width="364.73" height="37.76" style="fill:#fff"></rect><path d="M432.86,164.24H67.14V125.48H432.86Zm-364.72-1H431.86V126.48H68.14Z" style="fill:#c7c7c7"></path><rect x="394.6" y="125.98" width="37.76" height="37.76" style="fill:#FFC727"></rect><path d="M424.23,154.59,421,157l-5.94-7.84-2.17-2.87a5.31,5.31,0,0,0,2.89-2.84l2.31,3Z" style="fill:#fff"></path><path d="M417.91,136.12a8.75,8.75,0,1,0-2.83,13.06,9.12,9.12,0,0,0,3-2.67A8.77,8.77,0,0,0,417.91,136.12Zm-3.76,9.48a5.15,5.15,0,0,1-1.24.71,5.22,5.22,0,1,1,2.89-2.84A5.14,5.14,0,0,1,414.15,145.6Z" style="fill:#fff"></path><path d="M83.65,150.63A1.32,1.32,0,0,1,82.31,152,1.36,1.36,0,0,1,81,151a1.74,1.74,0,0,1-.05-.34V136.51a1.33,1.33,0,0,1,2.66,0v4.17a5.45,5.45,0,0,1,2.56-.7,5.23,5.23,0,0,1,5.22,5.24v5.41a1.32,1.32,0,1,1-2.63,0v-5.41a2.58,2.58,0,1,0-5.15,0Z" style="fill:#263238"></path><path d="M101.05,141.3a1.35,1.35,0,0,1-1.34,1.32h-.6v6.67a1.32,1.32,0,0,1,1.32,1.34A1.29,1.29,0,0,1,99.11,152a2.66,2.66,0,0,1-2.65-2.66v-6.67h-.7a1.32,1.32,0,0,1,0-2.64h.7v-3.47a1.32,1.32,0,0,1,1.34-1.32,1.3,1.3,0,0,1,1.31,1.32V140h.6A1.34,1.34,0,0,1,101.05,141.3Z" style="fill:#263238"></path><path d="M109.12,141.3a1.35,1.35,0,0,1-1.34,1.32h-.6v6.67a1.32,1.32,0,0,1,1.32,1.34,1.3,1.3,0,0,1-1.32,1.32,2.67,2.67,0,0,1-2.66-2.66v-6.67h-.69a1.32,1.32,0,0,1,0-2.64h.69v-3.47a1.32,1.32,0,0,1,1.34-1.32,1.3,1.3,0,0,1,1.32,1.32V140h.6A1.34,1.34,0,0,1,109.12,141.3Z" style="fill:#263238"></path><path d="M113.31,155.16V141.25a1.28,1.28,0,0,1,1.27-1.27,1.31,1.31,0,0,1,1.31,1,6.14,6.14,0,0,1,3.26-1,5.94,5.94,0,0,1,5.79,6,5.88,5.88,0,0,1-5.79,5.94,5.55,5.55,0,0,1-3.21-1v4.21a1.35,1.35,0,0,1-1.36,1.29A1.31,1.31,0,0,1,113.31,155.16Zm2.63-9.17a3.16,3.16,0,0,0,.94,2.39,2.94,2.94,0,0,0,2.27,1,3.07,3.07,0,0,0,2.25-1,3.49,3.49,0,0,0,.93-2.39,3.7,3.7,0,0,0-.93-2.42,3.15,3.15,0,0,0-2.25-1,3,3,0,0,0-2.27,1A3.34,3.34,0,0,0,115.94,146Z" style="fill:#263238"></path><path d="M130.73,139a1.81,1.81,0,0,1,1.8,1.8,1.79,1.79,0,0,1-1.8,1.77,1.77,1.77,0,0,1-1.77-1.77A1.79,1.79,0,0,1,130.73,139Zm0,9.53a1.81,1.81,0,0,1,1.8,1.8,1.79,1.79,0,0,1-1.8,1.77,1.77,1.77,0,0,1-1.77-1.77A1.79,1.79,0,0,1,130.73,148.55Z" style="fill:#263238"></path><path d="M135.66,150.13l5.86-13.95a1.33,1.33,0,0,1,1.75-.7,1.29,1.29,0,0,1,.67,1.7l-5.86,14a1.34,1.34,0,0,1-1.22.79,1,1,0,0,1-.48-.1A1.28,1.28,0,0,1,135.66,150.13Z" style="fill:#263238"></path><path d="M141.69,150.13l5.87-13.95a1.32,1.32,0,0,1,1.74-.7,1.29,1.29,0,0,1,.67,1.7l-5.86,14a1.34,1.34,0,0,1-1.22.79,1,1,0,0,1-.48-.1A1.29,1.29,0,0,1,141.69,150.13Z" style="fill:#263238"></path><path d="M168.18,141.9l-4,9.28a1.22,1.22,0,0,1-.1.2,0,0,0,0,1,0,0,.39.39,0,0,1-.12.14.06.06,0,0,1-.05,0,.53.53,0,0,1-.14.12s0,0,0,.05a.76.76,0,0,1-.22.11s0,0,0,0a.64.64,0,0,0-.2.05h0a.93.93,0,0,1-.24,0,.82.82,0,0,1-.22,0h-.05a.25.25,0,0,0-.16-.05l0,0h0a.62.62,0,0,1-.22-.14v0c-.07,0-.09-.07-.14-.12s-.05,0-.05,0a.53.53,0,0,1-.12-.14,0,0,0,0,1,0,0c-.05-.08-.07-.15-.1-.2L160.18,147l-1.69,4.14s-.08.12-.12.2v0l-.15.14s0,0,0,0l-.15.14a.69.69,0,0,1-.21.14h-.05s0,0,0,0a.25.25,0,0,0-.15.05h0a1.1,1.1,0,0,1-.24,0,.86.86,0,0,1-.24,0H157a.24.24,0,0,0-.14-.05s0,0,0,0a.41.41,0,0,1-.21-.14s0,0,0,0a.63.63,0,0,0-.14-.12l0,0s-.07-.09-.09-.14,0,0,0,0a.76.76,0,0,0-.12-.2l-3.92-9.28a1.23,1.23,0,0,1,.69-1.65,1.18,1.18,0,0,1,1.58.71l2.83,6.44,1.67-4a1.28,1.28,0,0,1,1.17-.77,1.24,1.24,0,0,1,1.18.77l1.7,4,2.82-6.44a1.2,1.2,0,0,1,1.61-.71A1.25,1.25,0,0,1,168.18,141.9Z" style="fill:#263238"></path><path d="M187.55,141.9l-4,9.28a1.22,1.22,0,0,1-.1.2,0,0,0,0,1,0,0,.39.39,0,0,1-.12.14.06.06,0,0,1-.05,0,.53.53,0,0,1-.14.12s0,0,0,.05a.76.76,0,0,1-.22.11s0,0,0,0a.64.64,0,0,0-.2.05h0a.9.9,0,0,1-.24,0,.82.82,0,0,1-.22,0h-.05a.25.25,0,0,0-.16-.05l0,0h0a.62.62,0,0,1-.22-.14v0c-.07,0-.09-.07-.14-.12s-.05,0-.05,0a.53.53,0,0,1-.12-.14,0,0,0,0,1,0,0c-.05-.08-.07-.15-.1-.2L179.56,147l-1.7,4.14s-.08.12-.12.2v0l-.15.14s0,0,0,0l-.15.14a.69.69,0,0,1-.21.14h-.05s0,0,0,0a.25.25,0,0,0-.15.05h0a1.1,1.1,0,0,1-.24,0,.86.86,0,0,1-.24,0h-.07a.3.3,0,0,0-.15-.05s0,0-.05,0a.41.41,0,0,1-.21-.14s0,0,0,0a.63.63,0,0,0-.14-.12l0,0s-.07-.09-.09-.14,0,0,0,0a.76.76,0,0,0-.12-.2l-3.92-9.28a1.23,1.23,0,0,1,.69-1.65,1.18,1.18,0,0,1,1.58.71l2.83,6.44,1.67-4a1.29,1.29,0,0,1,1.18-.77,1.23,1.23,0,0,1,1.17.77l1.7,4,2.82-6.44a1.2,1.2,0,0,1,1.61-.71A1.25,1.25,0,0,1,187.55,141.9Z" style="fill:#263238"></path><path d="M206.92,141.9,203,151.18l-.09.2s0,0,0,0a.39.39,0,0,1-.12.14.06.06,0,0,1,0,0,.53.53,0,0,1-.14.12s0,0,0,.05a.76.76,0,0,1-.22.11s0,0,0,0a.54.54,0,0,0-.19.05H202a.9.9,0,0,1-.24,0,.82.82,0,0,1-.22,0h-.05a.25.25,0,0,0-.16-.05l0,0h0a.62.62,0,0,1-.22-.14v0c-.07,0-.09-.07-.14-.12s-.05,0-.05,0a.53.53,0,0,1-.12-.14,0,0,0,0,1,0,0c-.05-.08-.07-.15-.1-.2L198.93,147l-1.7,4.14s-.08.12-.12.2v0l-.15.14s0,0,0,0l-.15.14a.69.69,0,0,1-.21.14h-.05s0,0,0,0a.25.25,0,0,0-.15.05h0a1.1,1.1,0,0,1-.24,0,.86.86,0,0,1-.24,0h-.07a.3.3,0,0,0-.15-.05s0,0-.05,0a.41.41,0,0,1-.21-.14s0,0,0,0a.63.63,0,0,0-.14-.12l-.05,0s-.07-.09-.09-.14,0,0,0,0a.76.76,0,0,0-.12-.2L191,141.9a1.23,1.23,0,0,1,.69-1.65,1.18,1.18,0,0,1,1.58.71l2.83,6.44,1.67-4a1.29,1.29,0,0,1,1.18-.77,1.23,1.23,0,0,1,1.17.77l1.7,4,2.82-6.44a1.2,1.2,0,0,1,1.61-.71A1.25,1.25,0,0,1,206.92,141.9Z" style="fill:#263238"></path><path d="M213,148.55a1.82,1.82,0,0,1,1.8,1.8,1.79,1.79,0,0,1-1.8,1.77,1.77,1.77,0,0,1-1.77-1.77A1.79,1.79,0,0,1,213,148.55Z" style="fill:#263238"></path></g><g id="freepik--Character--inject-16"><path d="M472.42,212.69C470.49,211.3,409,192.22,406.18,193c-.3.09-.95,2.85-3.73,9.72-.13.32-29.39,35.8-29.39,35.8l40.05,21.14L436,227.4s28.59-5.42,31.58-6.58S474.34,214.07,472.42,212.69Z" style="fill:#c95f50"></path><path d="M472.42,212.69C470.49,211.3,409,192.22,406.18,193c-.3.09-.95,2.85-3.73,9.72-.13.32-4.14,5-6.1,7.5,2.55,2.19,27.13,19.54,33.88,25.3L436,227.4s28.59-5.42,31.58-6.58S474.34,214.07,472.42,212.69Z" style="fill:#FFC727"></path><path d="M417.9,199a9.54,9.54,0,0,1-1.18,2,9.69,9.69,0,0,1-3.53,2.85,9,9,0,0,1-4.5.82,10.85,10.85,0,0,1-4.34-1.39c-.08,0,0-.15.07-.11a9.41,9.41,0,0,0,11.65-2.85,10.47,10.47,0,0,0,1-1.77,7.89,7.89,0,0,0,.36-1c.11-.33.13-.6.45-.79a.34.34,0,0,1,.44.13C418.7,197.37,418.13,198.44,417.9,199Z" style="fill:#fff"></path><path d="M459.47,222.67a7,7,0,0,1-3.33-2.61,18.32,18.32,0,0,1-2.22-3.93,17.64,17.64,0,0,1-1.21-4.27,19.47,19.47,0,0,1-.19-2.16,7.37,7.37,0,0,1,.12-2.2.13.13,0,0,1,.25,0,17.7,17.7,0,0,1,.18,1.94c.08.72.19,1.43.34,2.14a23.59,23.59,0,0,0,1.24,4,13.63,13.63,0,0,0,5.06,6.5A.3.3,0,0,1,459.47,222.67Z" style="fill:#fff"></path><path d="M430.24,228.05c-7.48-5.39-14.92-10.84-22.45-16.16-2.13-1.51-4.25-3-6.41-4.52-.07-.05,0-.15.08-.1a255.42,255.42,0,0,1,22.93,15.52c2.07,1.6,4.09,3.28,6.09,5C430.67,227.91,430.44,228.2,430.24,228.05Z" style="fill:#fff"></path><path d="M402.08,208.57a.53.53,0,0,1-.11.15l-.17.11-.32.22c-.23.15-.46.3-.7.43-.47.27-.94.51-1.42.74-.07,0-.13-.07-.07-.11.45-.28.89-.58,1.33-.88l.64-.43.34-.24a.73.73,0,0,1,.34-.17A.13.13,0,0,1,402.08,208.57Z" style="fill:#fff"></path><path d="M405.57,211.14a.58.58,0,0,1-.11.15l-.17.12-.32.21c-.23.15-.46.3-.7.43-.47.27-.94.51-1.42.74-.07,0-.13-.07-.07-.11.45-.28.89-.57,1.33-.88l.64-.43.34-.23a.75.75,0,0,1,.34-.18A.13.13,0,0,1,405.57,211.14Z" style="fill:#fff"></path><path d="M409.06,213.71a.44.44,0,0,1-.12.15l-.16.12-.33.21a8.09,8.09,0,0,1-.69.44c-.47.26-.94.5-1.42.74-.07,0-.13-.08-.07-.12.45-.28.89-.57,1.33-.87l.64-.44.34-.23a.86.86,0,0,1,.34-.18C409,213.52,409.1,213.63,409.06,213.71Z" style="fill:#fff"></path><path d="M412.54,216.28a.33.33,0,0,1-.11.15,1,1,0,0,1-.17.12l-.32.22-.69.43c-.47.26-.94.51-1.43.74-.06,0-.12-.08-.06-.12.45-.27.89-.57,1.33-.87l.64-.44.33-.23a1,1,0,0,1,.35-.18C412.5,216.09,412.59,216.2,412.54,216.28Z" style="fill:#fff"></path><path d="M416,218.86a.53.53,0,0,1-.11.15l-.17.11a3.62,3.62,0,0,1-.32.22c-.23.15-.46.3-.7.43-.46.27-.94.51-1.42.74-.06,0-.13-.07-.06-.11.45-.28.89-.58,1.32-.88l.65-.43.33-.24a.82.82,0,0,1,.35-.17A.13.13,0,0,1,416,218.86Z" style="fill:#fff"></path><path d="M419.52,221.43a.42.42,0,0,1-.11.15l-.17.12-.32.21c-.23.15-.46.3-.7.43-.46.27-.94.51-1.42.74-.06,0-.13-.07-.06-.11.45-.28.89-.57,1.32-.88l.64-.43.34-.23a.84.84,0,0,1,.35-.18A.13.13,0,0,1,419.52,221.43Z" style="fill:#fff"></path><path d="M423,224a.42.42,0,0,1-.11.15l-.17.12-.32.21c-.23.16-.46.3-.7.44-.46.26-.94.5-1.42.73-.07,0-.13-.07-.06-.11q.67-.42,1.32-.87l.64-.44a4,4,0,0,0,.34-.23.9.9,0,0,1,.35-.18C423,223.81,423.06,223.92,423,224Z" style="fill:#fff"></path><path d="M426.5,226.57a.42.42,0,0,1-.11.15l-.17.12-.32.22-.7.43c-.46.26-.94.5-1.42.74-.07,0-.13-.08-.06-.12.45-.27.89-.57,1.32-.87l.64-.44.34-.23a.86.86,0,0,1,.34-.18C426.46,226.38,426.55,226.49,426.5,226.57Z" style="fill:#fff"></path><path d="M430,229.15a.53.53,0,0,1-.11.15l-.17.11-.32.22c-.23.15-.46.3-.7.43-.47.27-.94.51-1.42.74-.07,0-.13-.08-.07-.11.45-.28.89-.58,1.33-.88l.64-.43.34-.24a.73.73,0,0,1,.34-.17A.13.13,0,0,1,430,229.15Z" style="fill:#fff"></path><path d="M427.18,248.14l-37.61-32s-36.27,46.36-36.89,46.67c0,0-25.48,6.14-48.2,8.18-4.17.38-30.66-8.48-50.39,7.43l3.68,38.33c38.48,5.5,92.16-2.78,115-10.27C394.41,299.37,427.18,248.14,427.18,248.14Z" style="fill:#37474f"></path><path d="M420,247.53c-7.95-6.57-16-13-24.32-19.08-2.37-1.73-4.82-3.35-7.16-5.12-.08-.06-.16.07-.08.13,2,1.59,4,3.3,6,4.94s4,3.25,6,4.85c4,3.2,8.2,6.21,12.34,9.26,2.37,1.74,4.76,3.44,7.15,5.15C420,247.72,420,247.59,420,247.53Z" style="fill:#263238"></path><path d="M394.5,233.23c-6.36,8.46-12.75,16.89-19.08,25.37q-4.74,6.36-9.51,12.71c-1.4,1.86-2.79,3.59-5.13,4.25a23.2,23.2,0,0,1-3.53.58l-3.93.49c-10.44,1.28-20.88,2.59-31.33,3.86a60.7,60.7,0,0,1-7.85.57,47.88,47.88,0,0,1-7.82-1,61.66,61.66,0,0,0-14.17-.75,74.85,74.85,0,0,0-27,7.34c-1.08.51-2.15,1-3.21,1.58-.08.05,0,.18.09.14a82.17,82.17,0,0,1,27.8-8,61.46,61.46,0,0,1,14.28.28c2.53.37,5,.93,7.58,1.18a39.6,39.6,0,0,0,7.85-.19c5.25-.55,10.48-1.28,15.72-1.92L351,277.86c2.61-.32,5.23-.59,7.83-1a9.46,9.46,0,0,0,5.69-2.52,49.83,49.83,0,0,0,4.33-5.66c1.59-2.19,3.2-4.36,4.81-6.53,6.28-8.51,12.5-17,18.75-25.57l2.34-3.2C394.83,233.27,394.6,233.1,394.5,233.23Z" style="fill:#263238"></path><path d="M372.52,145.75c-2,1.32-41.4,52.24-41.67,55.12,0,.32,2.33,1.9,7.79,6.9.26.24.53,2.23.78,5.21.93,11.18,1.7,36.47,1.7,36.47l41.3-10.16-7.06-43L373.53,185s4.94-28.68,4.91-31.89S374.49,144.43,372.52,145.75Z" style="fill:#c95f50"></path><path d="M372.52,145.75c-2,1.32-41.4,52.24-41.67,55.12,0,.32,2.33,1.9,7.79,6.9.26.24.53,2.23.78,5.21,6.75-3.26,27.51-12.85,35.94-16.74L373.53,185s4.94-28.68,4.91-31.89S374.49,144.43,372.52,145.75Z" style="fill:#FFC727"></path><path d="M340.55,192a9.1,9.1,0,0,1,1.42,1.79,9.68,9.68,0,0,1,1.44,4.3,9.05,9.05,0,0,1-.81,4.5,10.94,10.94,0,0,1-2.82,3.59c-.06,0-.15-.05-.08-.11a9.4,9.4,0,0,0,2.83-8,9.19,9.19,0,0,0-1.42-3.9,10.38,10.38,0,0,0-1.3-1.59,9.58,9.58,0,0,0-.76-.67c-.28-.22-.53-.34-.59-.7a.34.34,0,0,1,.28-.37C339.35,190.69,340.15,191.6,340.55,192Z" style="fill:#fff"></path><path d="M377.34,161.38a7,7,0,0,1-3.62,2.19,18.13,18.13,0,0,1-4.46.71,17.73,17.73,0,0,1-4.42-.36c-.7-.16-1.4-.35-2.09-.58a7.25,7.25,0,0,1-2-.89.13.13,0,0,1,.09-.23c.63.09,1.26.36,1.88.51a21.73,21.73,0,0,0,2.13.44,23.69,23.69,0,0,0,4.21.25,13.64,13.64,0,0,0,7.86-2.46A.3.3,0,0,1,377.34,161.38Z" style="fill:#fff"></path><path d="M372.62,192c-8.3,4-16.63,8-24.89,12.06-2.35,1.16-4.7,2.3-7,3.5-.07,0-.12-.08-.05-.13a257.5,257.5,0,0,1,24.56-12.78c2.39-1.07,4.83-2,7.26-3A.19.19,0,0,1,372.62,192Z" style="fill:#fff"></path><path d="M342.09,207.48a.45.45,0,0,1,.08.17c0,.06,0,.13,0,.2s0,.26,0,.39,0,.54,0,.82c0,.53,0,1.06,0,1.6,0,.07-.13.08-.13,0,0-.53-.08-1.06-.14-1.58,0-.26-.05-.52-.08-.77s0-.27,0-.41a.74.74,0,0,1,0-.39A.13.13,0,0,1,342.09,207.48Z" style="fill:#fff"></path><path d="M346,205.63a.44.44,0,0,1,.08.17,1.49,1.49,0,0,1,0,.21c0,.12,0,.25,0,.38s0,.55.05.82c0,.53,0,1.07,0,1.6,0,.08-.12.08-.13,0,0-.52-.08-1.05-.14-1.58,0-.25,0-.51-.08-.77s0-.27,0-.41a.7.7,0,0,1,0-.38A.13.13,0,0,1,346,205.63Z" style="fill:#fff"></path><path d="M349.93,203.79a.34.34,0,0,1,.08.17,1.23,1.23,0,0,1,0,.2c0,.13,0,.26,0,.38,0,.28,0,.55.05.82,0,.54,0,1.07,0,1.61,0,.07-.12.07-.13,0,0-.53-.08-1.06-.14-1.58,0-.26-.05-.52-.07-.77s0-.28-.05-.41a1,1,0,0,1,0-.39A.12.12,0,0,1,349.93,203.79Z" style="fill:#fff"></path><path d="M353.86,201.94a.51.51,0,0,1,.07.17,1.62,1.62,0,0,1,0,.2l0,.39a7.37,7.37,0,0,1,.05.82c0,.53,0,1.07,0,1.6,0,.07-.13.08-.14,0,0-.53-.08-1.05-.13-1.58,0-.26-.06-.51-.08-.77s0-.27-.05-.41a1,1,0,0,1,0-.39A.14.14,0,0,1,353.86,201.94Z" style="fill:#fff"></path><path d="M357.78,200.09a1.3,1.3,0,0,1,.08.17c0,.07,0,.14,0,.21s0,.25,0,.38c0,.28,0,.55,0,.82,0,.54,0,1.07,0,1.6,0,.08-.13.08-.13,0,0-.53-.08-1.06-.14-1.59,0-.25-.05-.51-.08-.77s0-.27,0-.4a.86.86,0,0,1,0-.39A.14.14,0,0,1,357.78,200.09Z" style="fill:#fff"></path><path d="M361.7,198.25a.45.45,0,0,1,.08.17c0,.06,0,.13,0,.2s0,.26,0,.39,0,.54.05.82c0,.53,0,1.06,0,1.6,0,.07-.13.07-.13,0,0-.53-.08-1.06-.14-1.58,0-.26,0-.52-.08-.77s0-.27,0-.41a.74.74,0,0,1,0-.39A.13.13,0,0,1,361.7,198.25Z" style="fill:#fff"></path><path d="M365.62,196.4a.65.65,0,0,1,.08.17c0,.07,0,.14,0,.2s0,.26,0,.39,0,.55.05.82c0,.53,0,1.07,0,1.6,0,.07-.13.08-.13,0,0-.53-.08-1.05-.14-1.58,0-.26-.05-.51-.08-.77s0-.27,0-.41a.7.7,0,0,1,0-.38A.13.13,0,0,1,365.62,196.4Z" style="fill:#fff"></path><path d="M369.54,194.56a.35.35,0,0,1,.08.16,1.49,1.49,0,0,1,0,.21c0,.13,0,.26,0,.38,0,.28,0,.55.05.82,0,.54,0,1.07,0,1.6a.07.07,0,0,1-.13,0c0-.53-.08-1.06-.14-1.59,0-.25-.05-.51-.07-.77s0-.27-.05-.4a.74.74,0,0,1,0-.39A.12.12,0,0,1,369.54,194.56Z" style="fill:#fff"></path><path d="M373.46,192.71a.34.34,0,0,1,.08.17,1.23,1.23,0,0,1,0,.2c0,.13,0,.26,0,.39a7.37,7.37,0,0,1,0,.82c0,.53,0,1.06,0,1.6,0,.07-.13.08-.14,0,0-.53-.08-1.06-.14-1.58,0-.26-.05-.51-.07-.77s0-.27,0-.41a1,1,0,0,1,0-.39A.13.13,0,0,1,373.46,192.71Z" style="fill:#fff"></path><path d="M377.46,208.3l-41.66,8.85s5,60.31,4.82,61c0,0-21.29,2.78-38.32,1.85,0,0-28.65-14.41-48.21,7.08l-2.78,37.7c54.5,6.61,127.46,3.54,137.13-15C399,289.59,377.46,208.3,377.46,208.3Z" style="fill:#37474f"></path><path d="M340.52,277.86c-4.63,0-12.38.88-17,1.05s-9.17.45-13.75.69c-2.64.14-4.85,0-7.47.23a.08.08,0,0,0,0,.15,184.32,184.32,0,0,0,27.2-.54c2.64-.23,8.51-.86,11.13-1.25C340.75,278.17,341,277.86,340.52,277.86Z" style="fill:#263238"></path><path d="M299.7,276a33.07,33.07,0,0,0-5.73-5c-.07-.06-.16.06-.09.12a60.69,60.69,0,0,1,5.14,5.49,50.55,50.55,0,0,1,4.76,6,0,0,0,0,0,.07-.05A36.68,36.68,0,0,0,299.7,276Z" style="fill:#263238"></path><path d="M391.34,281.68c0-2.06-.23-4.12-.39-6.18-.31-4.07-.72-8.14-1.26-12.19-1.09-8.16-2.51-16.26-4.33-24.29-.51-2.24-1-4.48-1.61-6.71a62.72,62.72,0,0,0-1.94-6.75c-.07-.17-.38-.15-.35.06.3,2,.82,3.93,1.26,5.88s.89,4,1.31,5.94q1.28,6.06,2.35,12.17c1.42,8.09,2.57,16.22,3.53,24.38.27,2.29.5,4.58.74,6.87.13,1.15.59,10.33.61,11.51,0,.1.16.09.15,0C391.32,291.34,391.41,284.74,391.34,281.68Z" style="fill:#263238"></path><path d="M340.51,271.53c-.09-1.13-.47-5.49-.91-6.33,0-.05-.09,0-.1,0-.31,1,.11,5.44.22,6.57s.71,6,.92,6.34a.08.08,0,0,0,.14,0A59.26,59.26,0,0,0,340.51,271.53Z" style="fill:#263238"></path><path d="M378.92,288.19c-.16-7.34-.66-14.67-1.4-22-1.46-14.41-3.84-28.72-6.39-43-.31-1.75-.63-3.5-.94-5.25,0-.1-.16-.05-.15,0,2.38,14.26,4.83,28.51,6.45,42.89.8,7.13,1.41,14.29,1.72,21.47.15,3.48.23,7,.21,10.45a39.74,39.74,0,0,1-.8,8.71,16,16,0,0,1-3.84,7.62,18.44,18.44,0,0,1-7.4,4.44,66.48,66.48,0,0,1-9.22,2.31q-5.16,1-10.39,1.67c-13.95,1.75-28,1.76-42.07,1.48-14.39-.28-28.76-.82-43.15-1-1.8,0-3.6,0-5.41-.08-.09,0-.09.15,0,.15,7.42.23,14.83.55,22.25.78s14.7.45,22.05.65c14.19.39,28.44.59,42.58-.91a137,137,0,0,0,20.33-3.51,27.68,27.68,0,0,0,8-3.24,14.84,14.84,0,0,0,5.44-6.15C379.35,300.39,379,294,378.92,288.19Z" style="fill:#263238"></path><path d="M377.53,214.83c-10.19,1.58-20.35,3.28-30.42,5.5-2.86.63-5.7,1.39-8.58,2-.1,0-.06.16,0,.14,2.54-.46,5.1-.77,7.66-1.18s5.09-.83,7.63-1.27c5.06-.9,10.08-2,15.11-3.09,2.88-.61,5.74-1.26,8.6-1.91A.08.08,0,0,0,377.53,214.83Z" style="fill:#263238"></path><path d="M162.73,236.17l6.2,28.4c.28.83-.16,1.49-1,1.46l-14.54-.46a2.35,2.35,0,0,1-2-1.56l-6.2-28.39c-.27-.84.16-1.5,1-1.47l14.54.46A2.36,2.36,0,0,1,162.73,236.17Z" style="fill:#263238"></path><path d="M161,236.1l6.21,28.4c.27.83-.16,1.49-1,1.46l-14.53-.46a2.33,2.33,0,0,1-2-1.56l-6.2-28.39c-.28-.84.16-1.5,1-1.47l14.53.46A2.34,2.34,0,0,1,161,236.1Z" style="fill:#37474f"></path><path d="M157,237.26a1.24,1.24,0,1,0,1.25-1.22A1.23,1.23,0,0,0,157,237.26Z" style="fill:#263238"></path><path d="M208.23,281c-8.63,17.34-27.62,39.67-35.27,39.59-3.63,0-10.15.69-14.82-3.6-10.21-9.35-18.51-27-20.06-37-.55-3.56,16.9-10.86,19.39-7.91,5.81,6.91,12.45,20.35,13.51,20.3,3.92-.21,19.51-12.6,30.39-21.32C214.58,260.47,211.67,274.13,208.23,281Z" style="fill:#c95f50"></path><path d="M138.07,261.65c2-7.17,3.61-8.71,2.08-15.65-1-4.55,1.47-7.15,4.6-3.44,5.11,6.07,4.49,15.85,3.29,19.18Z" style="fill:#c95f50"></path><path d="M138.85,283.12s-3-10.12-1.62-18c1-5.43,4.32-17,19.71-22.8,3.65-1.38,9.82-.75,4.68,3.66-3.65,3.13-6.92,4-8.71,6.23,0,0,7.76,1.73,9,5.44a70.41,70.41,0,0,1,2.54,9.92,13.81,13.81,0,0,1-1.81.64s.82,3.58-1.87,8.46Z" style="fill:#c95f50"></path><path d="M139,260.11c2.25-1.81,7.07-5.58,12.08-7.3,5.58-1.9,16.82-4.06,18.18.07,1,3-3.22,4.23-3.22,4.23s4.84.08,5.14,3c.28,2.67-3,3.41-3,3.41s2.92.56,2.7,3.18c-.28,3.16-6.36,1.47-9.41,4.43C160.71,271.8,139,260.11,139,260.11Z" style="fill:#c95f50"></path><path d="M152.07,259a23.4,23.4,0,0,1,13.84-2c.12,0,.17.13.05.13a57.8,57.8,0,0,0-13.87,1.94S152.05,259.05,152.07,259Z" style="fill:#263238"></path><path d="M154.16,264.61a26.19,26.19,0,0,1,13.93-1.19c.12,0,.16.13,0,.13a61.72,61.72,0,0,0-14,1.11S154.13,264.62,154.16,264.61Z" style="fill:#263238"></path><path d="M200,299.78,189.23,279.9a170,170,0,0,1,13.67-11.18c6.95-4.71,10.33-3.23,7.72,6.72C208.87,282.1,200,299.78,200,299.78Z" style="fill:#FFC727"></path><path d="M206.18,270.78a.74.74,0,1,1-1.48,0,.74.74,0,0,1,1.48,0Zm-8.62,11.16a.74.74,0,1,0,0,1.48.74.74,0,0,0,0-1.48Zm7.88,0a.74.74,0,1,0,.74.74A.74.74,0,0,0,205.44,281.94Zm-11.83-5.85h0l-.7.6a.66.66,0,0,0,0,.14.74.74,0,1,0,1.48,0A.74.74,0,0,0,193.61,276.09Zm7.89,0a.74.74,0,0,0-.74.74.74.74,0,1,0,1.48,0A.74.74,0,0,0,201.5,276.09Zm7.88,0a.74.74,0,0,0-.74.74.75.75,0,0,0,.74.75.76.76,0,0,0,.75-.75A.75.75,0,0,0,209.38,276.09Zm-11.82,17.74a.75.75,0,0,0-.63.35l.61,1.14h0a.75.75,0,0,0,.74-.75A.74.74,0,0,0,197.56,293.83ZM193.61,288h0l.63,1.15a.71.71,0,0,0,.13-.41A.74.74,0,0,0,193.61,288Zm7.89,0a.74.74,0,1,0,.74.74A.74.74,0,0,0,201.5,288Z" style="fill:#fff"></path><path d="M200.75,296.75c-1.36-3-2.76-6-4.3-8.9-.76-1.45-1.55-2.9-2.36-4.33s-1.76-2.78-2.55-4.21c0-.08-.17,0-.12.07.86,1.39,1.54,2.92,2.32,4.36s1.57,2.89,2.33,4.34c1.54,2.9,3.09,5.8,4.55,8.74C200.67,296.9,200.78,296.83,200.75,296.75Z" style="fill:#263238"></path><path d="M210.62,275.44C208.87,282.1,200,299.78,200,299.78L195.78,292l13.37-25.88C211.55,266.36,212.24,269.27,210.62,275.44Z" style="fill:#263238"></path><path d="M211.27,230.86c1.79-3.41,6.82-8.75,13-7.49,13.21,2.72,12.59,22.48,22.66,34.64,12.18,14.7,13.07,27.6,3.36,30-10.88,2.74-21.84-8.45-22.11-33.23-.17-15.49-4.84-22.25-8-21.71a11.59,11.59,0,0,0-5.48,2.77Z" style="fill:#263238"></path><path d="M227.85,246.29c.2,2.45.12,4.92.14,7.37s0,4.91,0,7.35.21,4.89.53,7.3a35.57,35.57,0,0,0,1.54,7.09,18.94,18.94,0,0,0,3.39,6.3,21,21,0,0,0,5.66,4.55,16.26,16.26,0,0,0,7,2,14.87,14.87,0,0,0,3.7-.28,14.13,14.13,0,0,0,1.8-.5,7,7,0,0,0,1.68-.81,9.47,9.47,0,0,1-3.41,1.6,15,15,0,0,1-3.78.54,15.48,15.48,0,0,1-3.83-.44,17.22,17.22,0,0,1-3.61-1.34,20.23,20.23,0,0,1-3.25-2l-.75-.59-.72-.63a13.53,13.53,0,0,1-1.36-1.37,19.69,19.69,0,0,1-3.66-6.64A46.44,46.44,0,0,1,227.13,261c0-2.47.14-4.93.3-7.38S227.79,248.75,227.85,246.29Z" style="fill:#263238"></path><path d="M212.15,229.51a20.6,20.6,0,0,1,3.34-3.86,11.5,11.5,0,0,1,4.4-2.34,11.23,11.23,0,0,1,4.93-.17,14.09,14.09,0,0,1,2.38.69,11.64,11.64,0,0,1,2.21,1.09,14.29,14.29,0,0,1,3.54,3.4,23.51,23.51,0,0,1,2.45,4.36c1.39,3.07,2.43,6.34,3.6,9.57a67.61,67.61,0,0,0,4.12,9.51,66.82,66.82,0,0,0,5.88,8.53,78.52,78.52,0,0,1,6,8.28,20.42,20.42,0,0,1,2.12,4.6l.34,1.23c.08.41.13.84.2,1.26l.11.63,0,.64,0,1.28a17.2,17.2,0,0,0-2.26-10,76.38,76.38,0,0,0-5.75-8.58,78,78,0,0,1-5.59-8.52,69.17,69.17,0,0,1-4-9.36c-1.19-3.2-2.23-6.49-3.71-9.65a26.26,26.26,0,0,0-2.67-4.53A14.15,14.15,0,0,0,230,224a12.29,12.29,0,0,0-2.43-1.09,14.23,14.23,0,0,0-2.57-.65,11.14,11.14,0,0,0-9.7,3.09A18,18,0,0,0,212.15,229.51Z" style="fill:#263238"></path><path d="M208.41,232.92c.16-1.23,1.3-2.67,2.12-2.76s6.31,3.37,6.58,5-2.57,2.5-2.57,2.5Z" style="fill:#FFC727"></path><path d="M252.33,324.4s21.41-19.52,5.55-50.21c0,0-10,1.59-12.66,1.08-8-1.56-14-6-23.15-9.4s-15.53-.73-19.19,5.51c-.91,1.55-4.62,21.42-1.34,29.5,2.57,6.34,13,8.18,13,8.18S234.78,326.34,252.33,324.4Z" style="fill:#FFC727"></path><path d="M206.18,270.78a.74.74,0,1,1-1.48,0,.74.74,0,0,1,1.48,0Zm7.15-.74a.75.75,0,0,0-.75.74.76.76,0,0,0,.75.75.75.75,0,0,0,.74-.75A.74.74,0,0,0,213.33,270Zm7.88,0a.74.74,0,0,0-.74.74.74.74,0,1,0,1.48,0A.74.74,0,0,0,221.21,270Zm7.89,0a.75.75,0,0,0-.75.74.76.76,0,0,0,.75.75.75.75,0,0,0,.74-.75A.74.74,0,0,0,229.1,270ZM209,265.56a.65.65,0,0,0,.39.12.74.74,0,0,0,.73-.59A10.15,10.15,0,0,0,209,265.56Zm9-.85a12.26,12.26,0,0,0-1.29-.2.66.66,0,0,0-.15.43.74.74,0,1,0,1.48,0A.59.59,0,0,0,218,264.71Zm-12.53,17.23a.74.74,0,1,0,.74.74A.74.74,0,0,0,205.44,281.94Zm7.89,0a.74.74,0,1,0,0,1.48.74.74,0,1,0,0-1.48Zm7.88,0a.74.74,0,1,0,.74.74A.74.74,0,0,0,221.21,281.94Zm7.89,0a.74.74,0,1,0,0,1.48.74.74,0,0,0,0-1.48Zm7.88,0a.74.74,0,1,0,.74.74A.74.74,0,0,0,237,281.94Zm7.89,0a.74.74,0,1,0,.74.74A.74.74,0,0,0,244.87,281.94Zm7.88,0a.74.74,0,0,0,0,1.48.74.74,0,1,0,0-1.48Zm7.89,0a.74.74,0,1,0,.74.74A.74.74,0,0,0,260.64,281.94Zm-58.93-5.82c-.08.46-.17.94-.25,1.45h0a.75.75,0,0,0,.74-.75A.73.73,0,0,0,201.71,276.12Zm7.67,0a.74.74,0,0,0-.74.74.75.75,0,0,0,.74.75.76.76,0,0,0,.75-.75A.75.75,0,0,0,209.38,276.09Zm7.89,0a.74.74,0,0,0-.74.74.74.74,0,1,0,1.48,0A.74.74,0,0,0,217.27,276.09Zm7.88,0a.74.74,0,0,0-.74.74.75.75,0,0,0,.74.75.76.76,0,0,0,.75-.75A.75.75,0,0,0,225.15,276.09Zm7.89,0a.74.74,0,0,0-.74.74.74.74,0,1,0,1.48,0A.74.74,0,0,0,233,276.09Zm7.89,0a.75.75,0,0,0-.75.74.76.76,0,0,0,.75.75.75.75,0,0,0,.74-.75A.74.74,0,0,0,240.93,276.09Zm7.88,0a.74.74,0,0,0-.74.74.74.74,0,1,0,1.48,0A.74.74,0,0,0,248.81,276.09Zm7.89,0a.75.75,0,0,0-.75.74.76.76,0,0,0,.75.75.75.75,0,0,0,.74-.75A.74.74,0,0,0,256.7,276.09Zm-51.26,17.74a.74.74,0,0,0-.74.74.74.74,0,1,0,1.48,0A.74.74,0,0,0,205.44,293.83Zm7.89,0a.75.75,0,0,0-.75.74.76.76,0,0,0,.75.75.75.75,0,0,0,.74-.75A.74.74,0,0,0,213.33,293.83Zm7.88,0a.74.74,0,0,0-.74.74.74.74,0,1,0,1.48,0A.74.74,0,0,0,221.21,293.83Zm7.89,0a.75.75,0,0,0-.75.74.76.76,0,0,0,.75.75.75.75,0,0,0,.74-.75A.74.74,0,0,0,229.1,293.83Zm7.88,0a.74.74,0,0,0-.74.74.74.74,0,1,0,1.48,0A.74.74,0,0,0,237,293.83Zm7.89,0a.74.74,0,0,0-.74.74.74.74,0,1,0,1.48,0A.74.74,0,0,0,244.87,293.83Zm7.88,0a.74.74,0,0,0-.74.74.75.75,0,0,0,.74.75.76.76,0,0,0,.75-.75A.75.75,0,0,0,252.75,293.83Zm7.89,0a.74.74,0,0,0-.74.74.74.74,0,1,0,1.48,0A.74.74,0,0,0,260.64,293.83ZM201.5,288a.74.74,0,1,0,.74.74A.74.74,0,0,0,201.5,288Zm7.88,0a.74.74,0,0,0,0,1.48.74.74,0,1,0,0-1.48Zm7.89,0a.74.74,0,1,0,.74.74A.74.74,0,0,0,217.27,288Zm7.88,0a.74.74,0,1,0,0,1.48.74.74,0,1,0,0-1.48Zm7.89,0a.74.74,0,1,0,.74.74A.74.74,0,0,0,233,288Zm7.89,0a.74.74,0,1,0,0,1.48.74.74,0,0,0,0-1.48Zm7.88,0a.74.74,0,1,0,.74.74A.74.74,0,0,0,248.81,288Zm7.89,0a.74.74,0,1,0,0,1.48.74.74,0,1,0,0-1.48Zm-43.37,17.74a.74.74,0,1,0,0,1.48.74.74,0,0,0,0-1.48Zm7.88,0a.74.74,0,1,0,.74.74A.74.74,0,0,0,221.21,305.73Zm7.89,0a.74.74,0,1,0,0,1.48.74.74,0,1,0,0-1.48Zm7.88,0a.74.74,0,1,0,.74.74A.74.74,0,0,0,237,305.73Zm7.89,0a.74.74,0,1,0,.74.74A.74.74,0,0,0,244.87,305.73Zm7.88,0a.74.74,0,1,0,0,1.48.74.74,0,1,0,0-1.48Zm7.89,0a.74.74,0,1,0,.74.74A.74.74,0,0,0,260.64,305.73Zm-59.14-5.85a.73.73,0,0,0-.3.06c.11.33.22.64.34.94.06.15.13.3.2.44a.72.72,0,0,0,.5-.69A.75.75,0,0,0,201.5,299.88Zm7.88,0a.75.75,0,1,0,.75.75A.76.76,0,0,0,209.38,299.88Zm7.89,0a.75.75,0,1,0,.74.75A.75.75,0,0,0,217.27,299.88Zm7.88,0a.75.75,0,1,0,.75.75A.76.76,0,0,0,225.15,299.88Zm7.89,0a.75.75,0,1,0,.74.75A.75.75,0,0,0,233,299.88Zm7.89,0a.75.75,0,1,0,0,1.49.75.75,0,0,0,0-1.49Zm7.88,0a.75.75,0,1,0,.74.75A.75.75,0,0,0,248.81,299.88Zm7.89,0a.75.75,0,1,0,0,1.49.75.75,0,0,0,0-1.49Zm-27.6,17.74a.75.75,0,0,0-.74.66c.4.22.81.43,1.22.64a.71.71,0,0,0,.26-.56A.74.74,0,0,0,229.1,317.62Zm7.88,0a.74.74,0,0,0-.74.74.74.74,0,1,0,1.48,0A.74.74,0,0,0,237,317.62Zm7.89,0a.74.74,0,0,0-.74.74.74.74,0,1,0,1.48,0A.74.74,0,0,0,244.87,317.62Zm7.88,0a.74.74,0,0,0-.74.74.75.75,0,0,0,.74.75.76.76,0,0,0,.75-.75A.75.75,0,0,0,252.75,317.62Zm-27.6-5.84a.74.74,0,1,0,0,1.48.74.74,0,1,0,0-1.48Zm7.89,0a.74.74,0,1,0,.74.74A.74.74,0,0,0,233,311.78Zm7.89,0a.74.74,0,1,0,0,1.48.74.74,0,0,0,0-1.48Zm7.88,0a.74.74,0,1,0,.74.74A.74.74,0,0,0,248.81,311.78Zm7.89,0a.74.74,0,1,0,0,1.48.74.74,0,1,0,0-1.48Zm-7.89,11.89a.75.75,0,0,0-.74.75.34.34,0,0,0,0,.1l1.46,0a.57.57,0,0,0,0-.13A.75.75,0,0,0,248.81,323.67Z" style="fill:#fff"></path><path d="M226.35,272.38c10.05,17.26,23,45.95,15,51-13.15,8.25-48.64,9.47-56.75,9.42-3.49,0-7.54-23.41-4.87-26s39.71,0,40.25-2.24c.31-1.26-1.28-12.62-3.14-26.73C214.7,261.5,223.47,267.44,226.35,272.38Z" style="fill:#c95f50"></path><path d="M186,305.66s-10.54-1.42-17.48-2c-3.87-.34-10.56-.33-13.51.73-4.43,1.57-21.92,11-19.73,15.27,2,3.89,16-6.11,16-6.11s-15,8.84-11.77,13.08,17.56-9.16,17.56-9.16-15.23,9.42-11.19,13.26c3.06,2.9,16.71-8.5,16.71-8.5s-13,8.19-10,11.31c3.32,3.45,16.58-6.29,16.58-6.29,9,6.64,16,6.13,20.92,5.17C191.26,332.17,186,305.66,186,305.66Z" style="fill:#c95f50"></path><path d="M156.27,310.14c-1.81,1-3.64,1.95-5.35,3.08s-3.38,2.33-5,3.61a35,35,0,0,0-5.74,5.59c3.28-3.46,9.33-7.61,11-8.74s3.36-2.34,5.06-3.47A0,0,0,0,0,156.27,310.14Z" style="fill:#263238"></path><path d="M160.46,316.24c-2.24,1.34-4.52,2.6-6.71,4s-4.12,3-6.19,4.57c-.16.12-.05.17.12,0,2.13-1.5,4.22-2.72,6.37-4.19s4.25-3,6.45-4.42C160.53,316.27,160.5,316.22,160.46,316.24Z" style="fill:#263238"></path><path d="M165,320.83a58.18,58.18,0,0,0-9.79,7c-.15.12,0,.17.17,0,3.21-2.37,5.71-4.26,9.69-6.88C165.13,320.91,165.08,320.79,165,320.83Z" style="fill:#263238"></path><path d="M196,305.36c-1.47-.06-6.67.16-10.15-.14C178,304.55,167,303,163,302.82c-4.69-.23-7.89.6-10,2.1-.8.56-1.09,1-.25.54,3.46-1.82,6.17-2.21,11.2-2,3.46.15,14,1.58,21.87,2.19a77.7,77.7,0,0,0,10.17-.12C196.12,305.54,196.13,305.37,196,305.36Z" style="fill:#263238"></path><path d="M239.21,294.29l-22.4-3s-1.25-11.28-1.06-17.62c.26-8.39,3.43-10.27,10-2.32C230.1,276.71,239.21,294.29,239.21,294.29Z" style="fill:#FFC727"></path><path d="M222,270.78a.74.74,0,1,1-1.48,0,.74.74,0,1,1,1.48,0Zm-.74,11.16a.74.74,0,1,0,.74.74A.74.74,0,0,0,221.21,281.94Zm7.89,0a.74.74,0,1,0,0,1.48.74.74,0,0,0,0-1.48Zm-11.83-5.85a.74.74,0,0,0-.74.74.74.74,0,1,0,1.48,0A.74.74,0,0,0,217.27,276.09Zm7.88,0a.74.74,0,0,0-.74.74.75.75,0,0,0,.74.75.76.76,0,0,0,.75-.75A.75.75,0,0,0,225.15,276.09ZM237,293.83a.7.7,0,0,0-.38.11l.91.13A.67.67,0,0,0,237,293.83ZM217.27,288a.74.74,0,1,0,.74.74A.74.74,0,0,0,217.27,288Zm7.88,0a.74.74,0,1,0,0,1.48.74.74,0,1,0,0-1.48Zm7.89,0a.74.74,0,1,0,.74.74A.74.74,0,0,0,233,288Z" style="fill:#fff"></path><path d="M219.54,291.7c-.23-.07-2.52-.45-2.69-.43-.12-1.33-.73-7.55-.81-8.2,0-.1-.14-.09-.14,0,0,.37,0,1.79.1,3.38a.14.14,0,0,1,0-.06c-.12-.3-.25-.58-.38-.87s-.23-.62-.34-.93c0-.09-.18,0-.14.06.11.3.24.59.34.89s.16.57.26.86.2.55.3.83v0c.07,1.8.16,3.62.24,4.29a24.74,24.74,0,0,0,3.27.21S219.58,291.71,219.54,291.7Z" style="fill:#263238"></path><path d="M237.21,291.87c-3.23-.66-6.46-1.27-9.72-1.73-1.63-.23-3.26-.44-4.89-.62s-3.29-.2-4.91-.41c-.09,0-.11.14,0,.14,1.64.12,3.27.47,4.9.68s3.26.42,4.88.65c3.26.45,6.51.9,9.75,1.43C237.29,292,237.3,291.88,237.21,291.87Z" style="fill:#263238"></path><path d="M232.56,281.87s-.07,0-.06,0c.34,1,4.94,9.86,6.48,12.2a13,13,0,0,0-1.75-.07,15.16,15.16,0,0,0,2.27.37C239.55,294.4,233.29,282.72,232.56,281.87Z" style="fill:#263238"></path><path d="M202.3,270.21c-1.62,4.31-2.54,17.79,2.12,17.74s12.43-16.42,11.54-20.56S204.74,263.67,202.3,270.21Z" style="fill:#c95f50"></path><path d="M212.89,269.13c-.15,1-4.37,8-9,8.21-1.5.06-2.22-8.15-2.22-8.15l-.19-.59-2.67-8.33,9.4-7.3,1.36-1s.58,2.32,1.28,5.23c0,.13.06.27.1.41l.12.47c.11.43.22.87.32,1.32s.15.66.22,1,.14.7.22,1.05A58.31,58.31,0,0,1,212.89,269.13Z" style="fill:#c95f50"></path><path d="M210.85,257.22a17.54,17.54,0,0,1-9.37,11.38l-2.67-8.33,9.4-7.3,1.36-1S210.15,254.31,210.85,257.22Z" style="fill:#263238"></path><path d="M186.07,245.45c-2.37,15.15,6.44,18.28,9.71,18.78,3,.46,13.13,1.65,17-13.18s-2.38-20.71-9.1-22.12S188.43,230.29,186.07,245.45Z" style="fill:#c95f50"></path><path d="M189.22,243.58c.36,0,.7-.09,1.05-.13a1.76,1.76,0,0,0,1-.34.54.54,0,0,0,.06-.66,1.35,1.35,0,0,0-1.31-.43,2,2,0,0,0-1.3.59A.58.58,0,0,0,189.22,243.58Z" style="fill:#263238"></path><path d="M199.09,244.63a9,9,0,0,1-1-.31,1.67,1.67,0,0,1-1-.51.54.54,0,0,1,.06-.66,1.35,1.35,0,0,1,1.36-.2,2,2,0,0,1,1.18.81A.58.58,0,0,1,199.09,244.63Z" style="fill:#263238"></path><path d="M196.73,248.31s.07.06.07.1c-.15,1-.14,2.25.76,2.69,0,0,0,.07,0,.06C196.42,250.87,196.42,249.27,196.73,248.31Z" style="fill:#263238"></path><path d="M197.77,247.33c1.69,0,1.45,3.42-.11,3.37S196.36,247.28,197.77,247.33Z" style="fill:#263238"></path><path d="M198.42,247.55c.28.21.55.57.9.63s.74-.26,1-.58c0,0,.06,0,.05,0,0,.64-.32,1.29-1,1.34s-1-.56-1.17-1.22C198.19,247.64,198.31,247.47,198.42,247.55Z" style="fill:#263238"></path><path d="M190.91,247.56s-.08,0-.08.08c0,1.05-.25,2.24-1.21,2.53,0,0,0,.06,0,.06C190.79,250.14,191.05,248.55,190.91,247.56Z" style="fill:#263238"></path><path d="M190.05,246.41c-1.67-.23-2,3.13-.46,3.34S191.45,246.6,190.05,246.41Z" style="fill:#263238"></path><path d="M189.33,246.56c-.29.15-.58.45-.9.44s-.6-.4-.8-.78c0,0,0,0-.06,0-.08.64.06,1.33.67,1.52s1-.34,1.23-1C189.51,246.69,189.44,246.5,189.33,246.56Z" style="fill:#263238"></path><path d="M196.1,256.27c-.26.24-.52.57-.9.59a2.73,2.73,0,0,1-1.11-.29s-.07,0-.05.05a1.39,1.39,0,0,0,1.31.6,1.09,1.09,0,0,0,.84-.9A.05.05,0,0,0,196.1,256.27Z" style="fill:#263238"></path><path d="M192.05,252.15s-.34,1.54-.4,2.27c0,.07.17.12.42.15h0a3.52,3.52,0,0,0,3.5-1c0-.07,0-.15-.11-.11a5.21,5.21,0,0,1-3.25.65c0-.2.67-2.61.55-2.63a6.67,6.67,0,0,0-1.69.24c.61-3.22,1.74-6.32,2.31-9.53a.1.1,0,0,0-.19-.07,54.07,54.07,0,0,0-2.93,10.17C190.19,252.68,191.75,252.25,192.05,252.15Z" style="fill:#263238"></path><path d="M192.5,254.39a3.87,3.87,0,0,0,1.43,1.35,1.8,1.8,0,0,0,1.06.17c.78-.13.87-.83.78-1.44a4,4,0,0,0-.25-1A5,5,0,0,1,192.5,254.39Z" style="fill:#263238"></path><path d="M193.93,255.74a1.8,1.8,0,0,0,1.06.17c.78-.13.87-.83.78-1.44A1.8,1.8,0,0,0,193.93,255.74Z" style="fill:#ff9cbd"></path><path d="M212.53,252c-3.93-.42-4.21-12.62-4.23-14.12,0,.95-.25,5.95-.65,6.12a4.1,4.1,0,0,1-1.22-.32h0a11.92,11.92,0,0,0,0-1.79c0-.28-.15.59-.38,1.66l-.71-.26a14.75,14.75,0,0,0-.11-3.82c-.08-.47-.36,1.64-.94,3.46a47.48,47.48,0,0,0-10.19-2.56c-1-.11-1.83-.16-2.58-.18.1-1.47.38-3,.25-2.7a13.76,13.76,0,0,0-.81,2.7h-1.13c.05-2.09,1.27-5.34.9-4.85a14.72,14.72,0,0,0-2.37,5c-1.44.17-1.85.42-1.86,0a17.33,17.33,0,0,1,6-10.38c5.26-4.28,15.17-4.74,20.2,2.8,0,0,4.35,3.31,4.73,8.16S214.8,252.23,212.53,252Z" style="fill:#263238"></path><path d="M210.23,251.84s3.67-4.55,5.76-3.21-.9,8.09-3.51,8.87a2.59,2.59,0,0,1-3.37-1.63Z" style="fill:#c95f50"></path><path d="M215.08,250.55s0,0,0,.07c-1.83.6-2.88,2.19-3.66,3.86a1.44,1.44,0,0,1,2.17-.25s0,.11-.06.1a1.59,1.59,0,0,0-1.79.43,8,8,0,0,0-.94,1.36c-.09.15-.37.05-.3-.13l0,0C210.64,253.67,212.63,250.61,215.08,250.55Z" style="fill:#263238"></path><circle cx="41.98" cy="300.36" r="2.66" style="fill:#fff"></circle></g><g id="freepik--Cursor--inject-16"><polygon points="257.8 186.34 264.07 201.48 257.81 204.07 251.51 188.83 241.17 196.86 241.17 154.22 271.01 184.37 257.8 186.34" style="fill:#263238"></polygon><path d="M241.53,148.56a7.66,7.66,0,0,1-.5-2.83,7.42,7.42,0,0,1,.5-2.83,7.24,7.24,0,0,1,.5,2.83A7.46,7.46,0,0,1,241.53,148.56Z" style="fill:#263238"></path><path d="M236.66,150.57a8.22,8.22,0,0,1-4-4,7.42,7.42,0,0,1,2.36,1.65A7.63,7.63,0,0,1,236.66,150.57Z" style="fill:#263238"></path><path d="M234.64,155.44a8.23,8.23,0,0,1-5.65,0,8.23,8.23,0,0,1,5.65,0Z" style="fill:#263238"></path><path d="M236.66,160.31a8.22,8.22,0,0,1-4,4,7.27,7.27,0,0,1,1.65-2.35A7.49,7.49,0,0,1,236.66,160.31Z" style="fill:#263238"></path><path d="M248.42,155.44a8.23,8.23,0,0,1,5.65,0,8.23,8.23,0,0,1-5.65,0Z" style="fill:#263238"></path><path d="M246.4,150.57a7.49,7.49,0,0,1,1.65-2.35,7.27,7.27,0,0,1,2.35-1.65,7.42,7.42,0,0,1-1.65,2.36A7.24,7.24,0,0,1,246.4,150.57Z" style="fill:#263238"></path></g></svg>